<svg id="Layer_1" data-name="Layer 1" xmlns="http://www.w3.org/2000/svg" viewBox="0 0 355.82 355.87"><defs><style>.cls-1{fill:#3c67d3;}</style></defs><title>agua</title><path class="cls-1" d="M316.5,178.3a140.05,140.05,0,0,1-61.21,115c-38.41,26.08-88.9,30.66-131.58,12.61-41.63-17.61-72.19-55.47-81.54-99.54C32.54,161,47.44,113.09,79.92,80.31c48.72-49.17,129-53.58,183.45-11.14,3,2.35,7.3-1.87,4.25-4.25-40-31.16-93.79-39.72-141.29-21.71C85.48,58.69,53.64,92.87,40.16,134.28c-13.95,42.85-6.08,91,19.82,127.66,25.5,36.1,66.91,58.41,110.91,60.77,39.2,2.11,77.92-12.69,106.45-39.43,28.83-27,45-65.59,45.16-105,0-3.87-6-3.87-6,0Z" transform="translate(0 -0.38)"/><path class="cls-1" d="M177.92,6.38a173.55,173.55,0,0,1,122,50.82c32.32,32.31,50.07,77,49.89,122.51s-19.35,89.62-51.75,121.54c-32.58,32.09-77.39,49.49-123,48.94-44.66-.53-87.7-19.29-119.2-50.79-32-32-49.71-76-49.89-121.1,0-3.87-6-3.87-6,0A179.78,179.78,0,0,0,47.12,298.91c29.82,32.6,71.54,52.64,115.41,56.64,44.72,4.07,89.61-9.74,125-37.13,34.78-26.92,58.39-67,65.8-110.27A177.8,177.8,0,0,0,177.92.38c-3.87,0-3.87,6,0,6Z" transform="translate(0 -0.38)"/><path class="cls-1" d="M145.39,242.71c24.53,12.28,54.26,6.29,71.52-15.16,17.15-21.29,15.9-51.67-1-72.63-.71,1.71-1.41,3.13-2.12,5.13h0c2.8,0,3.72-3.19,2.12-5.13q-20.9-25.29-41.77-50.59a3,3,0,0,0-4.24,0c-13.68,16.65-27.37,33.12-41.05,49.78-1.59,1.94-.69,4.94,2.12,4.94h0a33.56,33.56,0,0,1-2.12-4.94,58.25,58.25,0,0,0-8.45,62.8c1.62,3.5,6.79.5,5.18-3a52.06,52.06,0,0,1,7.51-55.59c1.64-1.93.65-5.28-2.12-5.28h0c.71,2,1.41,3.83,2.12,5.54,13.68-16.65,27.37-33.54,41-49.54H169.9c13.92,16,27.84,33.49,41.76,50.36.71-1.71,1.42-3.36,2.13-5.36h0c-2.83,0-3.69,3.17-2.12,5.12a52,52,0,0,1,.19,65.16c-15.18,18.85-42,23.94-63.43,13.2-3.45-1.73-6.49,3.45-3,5.18Z" transform="translate(0 -0.38)"/><path class="cls-1" d="M218.52,120.56l-13.4-16.23a3,3,0,0,0-4.24,0c-13.69,16.65-27.37,33.12-41,49.78-1.6,1.94-.69,4.94,2.12,4.94h0a34.58,34.58,0,0,1-2.13-4.94,58.18,58.18,0,0,0-7.85,64c9.52,19.15,29.93,30.84,51,31.1,20.9.27,40.31-11.88,50.39-29.92,11.54-20.64,8.09-46.26-6.51-64.36-.71,1.71-1.42,3.14-2.12,5.14h0c2.81,0,3.72-3.19,2.12-5.13q-5.19-6.28-10.39-12.58c-2.46-3-6.68,1.28-4.24,4.24l10.39,12.59c.71-1.71,1.42-3.12,2.12-5.12h0c-2.83,0-3.69,3.17-2.12,5.12a52.1,52.1,0,0,1,5.57,57.09c-8.79,16.68-26.57,26.74-45.21,27-18.36.23-35.33-10.16-44.58-25.77-11-18.59-8.15-42.86,5.67-59.12,1.63-1.93.65-5.3-2.12-5.3h0c.7,2,1.41,3.83,2.12,5.54,13.68-16.65,27.36-33.54,41.05-49.54h-4.24c4.46,5,8.93,10.58,13.4,16,2.47,3,6.69-1.53,4.24-4.49Z" transform="translate(0 -0.38)"/></svg>