<svg id="Layer_1" data-name="Layer 1" xmlns="http://www.w3.org/2000/svg" viewBox="0 0 355.82 355.87"><defs><style>.cls-1{fill:#fc5555;}</style></defs><title>dinero</title><path class="cls-1" d="M316.17,178A140.08,140.08,0,0,1,255,293c-38.41,26.08-88.91,30.66-131.58,12.61C81.74,288,51.19,250.15,41.84,206.08,32.21,160.71,47.11,112.8,79.59,80c48.72-49.17,129-53.58,183.45-11.14,3,2.35,7.29-1.86,4.24-4.24C227.3,33.48,173.5,24.92,126,42.92,85.14,58.4,53.31,92.58,39.83,134c-13.95,42.84-6.08,91,19.82,127.66,25.5,36.1,66.9,58.4,110.91,60.77,39.19,2.1,77.92-12.69,106.44-39.44,28.84-27,45-65.59,45.17-105,0-3.87-6-3.86-6,0Z" transform="translate(0.33 -0.1)"/><path class="cls-1" d="M177.58,6.1a173.53,173.53,0,0,1,122,50.82c32.31,32.31,50.06,76.94,49.88,122.51S330.15,269,297.75,301c-32.58,32.1-77.39,49.49-123,49-44.66-.53-87.71-19.3-119.2-50.8-32-32-49.72-76-49.89-121.1,0-3.86-6-3.86-6,0A179.73,179.73,0,0,0,46.79,298.62c29.81,32.61,71.54,52.65,115.41,56.64,44.72,4.08,89.61-9.73,125-37.12,34.78-26.93,58.39-67,65.79-110.28A177.76,177.76,0,0,0,177.58.1c-3.87,0-3.87,6,0,6Z" transform="translate(0.33 -0.1)"/><path class="cls-1" d="M154.88,108.91a70.78,70.78,0,0,1,16.6-3.4,3,3,0,0,0,3-3V87.11l-3,3h11.8l-3-3v15.4a3.06,3.06,0,0,0,3,3c10.88,1.34,21.55,4.7,29.86,12.07,7.92,7,11.41,17.25,12.14,27.53l3-3h-28.4l3,3c-.61-11.27-7.56-21.63-19.6-22.19a3,3,0,0,0-3,3v35.39a3,3,0,0,0,2.21,2.9c19.64,4.88,43.9,12,47.2,35.5.54,3.82,6.32,2.19,5.79-1.59-3.6-25.64-29.83-34.34-51.4-39.7l2.2,2.89V125.92l-3,3c8.61.4,13.17,8.33,13.6,16.19a3,3,0,0,0,3,3h28.4a3,3,0,0,0,3-3c-.87-12.17-5-23.17-13.9-31.77-9.08-8.77-21.91-12.33-34.1-13.83l3,3V87.11a3,3,0,0,0-3-3h-11.8a3,3,0,0,0-3,3v15.4l3-3a77.29,77.29,0,0,0-18.19,3.61c-3.66,1.21-2.09,7,1.59,5.79Z" transform="translate(0.33 -0.1)"/><path class="cls-1" d="M221.06,232.39c-10,10.82-23.4,15.43-37.78,16.53a3,3,0,0,0-3,3v17l3-3h-11.8l3,3v-17a3,3,0,0,0-3-3c-12.11-1-23.85-4.46-32.88-12.93S126,214.43,124.88,202.31l-3,3h28.2l-3-3c.06,14.94,8.92,26.06,23.61,29.3a3,3,0,0,0,3.79-2.9V186.92a3.07,3.07,0,0,0-2.2-2.9c-9.85-3.55-20.09-5.07-29.22-10.6-10.3-6.23-14.79-16.42-15-28.11-.06-3.86-6.06-3.87-6,0,.19,11.87,4.08,22.31,13.38,30,10.23,8.48,23.15,10.11,35.23,14.47l-2.21-2.89v41.79l3.8-2.89c-12.09-2.66-19.15-11.13-19.2-23.51a3,3,0,0,0-3-3h-28.2a3,3,0,0,0-3,3c1.28,13.61,5,26.83,14.56,37,9.78,10.44,24.23,14.47,38,15.6l-3-3v17a3,3,0,0,0,3,3h11.8a3,3,0,0,0,3-3v-17l-3,3c15.93-1.22,30.94-6.28,42-18.28,2.63-2.84-1.61-7.09-4.24-4.25Z" transform="translate(0.33 -0.1)"/><path class="cls-1" d="M164.09,124c-9.47,3.45-14.66,11.5-13.34,21.61s11.32,13.69,19.94,15.78a3,3,0,0,0,3.79-2.9V125.92a3,3,0,0,0-3-3,31.81,31.81,0,0,0-7.39,1.1c-3.73,1-2.15,6.8,1.59,5.79a24.75,24.75,0,0,1,5.8-.89l-3-3v32.59l3.8-2.89c-5.22-1.26-11.49-2.71-14.57-7.54-4.5-7.08,1.21-15.81,8-18.27C169.29,128.49,167.73,122.69,164.09,124Z" transform="translate(0.33 -0.1)"/><path class="cls-1" d="M191.58,229.91c10.39-3.84,18.08-12.95,16-24.56s-13.52-15.13-23.5-17.93a3,3,0,0,0-3.8,2.89v38.4c0,2.15,1.91,3.15,3.8,2.9a45.74,45.74,0,0,0,7.5-1.7c3.68-1.16,2.11-6.95-1.59-5.79a44,44,0,0,1-7.5,1.7l3.79,2.89v-38.4l-3.79,2.9c6.13,1.72,14.49,3.6,18,9.46,5.33,8.82-2.52,18.49-10.54,21.45C186.39,225.45,187.94,231.25,191.58,229.91Z" transform="translate(0.33 -0.1)"/></svg>