<svg id="Layer_1" data-name="Layer 1" xmlns="http://www.w3.org/2000/svg" viewBox="0 0 284.89 356.14"><defs><style>.cls-1{fill:#12c6a8;}</style></defs><title>enfermeria</title><path class="cls-1" d="M41.1,255a34.68,34.68,0,0,1-13.23-27.18v-125c0-15.87,9.55-27.15,23.57-33.19L87.67,54l37.77-16.25c5.8-2.5,11.41-4.31,17.91-4.31,6,0,11.27,2.2,16.61,4.5l73.91,31.81c14,6,23.22,17.52,23.22,33.25V218.41c0,2.41,0,4.82,0,7.23-.22,10.2-5.82,19.52-13.72,25.67l-23.82,18.55-55.77,43.43c-10.79,8.4-23,12.19-36.48,7.3-5.9-2.14-10.83-6.73-15.71-10.54L100,301c-3-2.35-7.28,1.86-4.24,4.24,10.88,8.5,21.9,19.67,35.7,22.82,11.48,2.63,23.74-.59,32.94-7.75l5.49-4.28,67.91-52.87c9.27-7.23,17.93-13.5,22.66-24.92,3.69-8.88,2.63-19.53,2.63-29V119.55c0-8.42.68-17.27-.82-25.6-2-11.1-9.48-20.63-19-26.37a79.07,79.07,0,0,0-9.81-4.5l-73.41-31.6c-7.24-3.11-14.83-4.84-22.75-3.7-5.32.76-10.06,2.68-14.92,4.77L84.64,48.8,48.41,64.39C33,71,21.87,84.49,21.87,102V214.41c0,10-.71,19.87,3.19,29.3a39.91,39.91,0,0,0,11.8,15.53c3,2.42,7.24-1.8,4.24-4.25Z" transform="translate(0 -0.01)"/><path class="cls-1" d="M254.05,50.43c16.44,7.39,24.83,22.57,24.83,40.18v142A41,41,0,0,1,263,264.85l-5.46,4.25-68.66,53.46L165,341.14c-14.84,11.56-35.68,12.37-50.75.6L54.67,295.21,25.53,272.43c-11.41-8.91-19.45-20.16-19.45-35.29V90.83c0-17.15,7.7-32.06,23.51-39.81,7.64-3.75,15.7-6.78,23.51-10.14l68.57-29.51c12.21-5.25,24.62-7.32,37.39-1.82L187.54,21.8c3.51,1.52,6.57-3.65,3-5.18C180,12.07,169.49,7.34,158.82,3,147.64-1.53,134.6-.68,123.66,4l-8,3.42L36.49,41.54c-11.85,5.1-22.32,10.59-29.58,22C.65,73.39.08,84.35.08,95.55v127c0,7.75-.45,15.67.78,23.35,2.29,14.33,11.79,24.06,22.63,32.53L55,303l55.28,43.2a47.09,47.09,0,0,0,58.07-.19L189,330l70.19-54.65c9.21-7.17,18-14.13,22.38-25.55,3.64-9.46,3.29-18.94,3.29-28.82V95.28c0-11.71-1-22.63-7.58-32.91a46.48,46.48,0,0,0-20.22-17.13c-3.5-1.57-6.55,3.6-3,5.19Z" transform="translate(0 -0.01)"/><path class="cls-1" d="M171.34,115.2a33.28,33.28,0,0,1-11.84,42.06c-12.87,8.52-30.06,6-40.93-4.45-11.12-10.72-12.31-28.06-4.45-40.93,8.82-14.43,27.88-18.79,42.68-11.53,3.46,1.7,6.5-3.48,3-5.18a39.47,39.47,0,0,0-50.16,12.59c-10.84,15.12-7.9,36.27,4.66,49.29,12.87,13.35,34.14,14.7,49.3,4.66,16.32-10.81,21-32.24,12.89-49.54-1.64-3.5-6.81-.46-5.18,3Z" transform="translate(0 -0.01)"/><path class="cls-1" d="M135.64,243.22H191c5.61,0,10.38-.35,15-4.14,6.14-5,5.06-13.62,5.06-20.61,0-7.49.88-14.63-4.24-20.8-3.22-3.88-9.26-5-13.9-6.56l-20.77-7.17L152,177c-4.76-1.64-10.06-3.95-15.2-2.22L101.7,186.51c-10.88,3.65-27.78,6.05-27.78,20.65v19.47c0,9.22,6.43,16.1,15.66,16.59,3.87.21,3.85-5.79,0-6-11.34-.61-9.66-12.51-9.66-20.48v-9.29c0-5.72,3.44-8.47,8.43-10.14l35.08-11.76L138,180.66c4.27-1.44,9,1,13,2.33l41.44,14.31c2.91,1,6.78,1.82,9.14,3.69,4.69,3.7,3.43,11.23,3.43,16.49s1.15,12.11-2.38,16.45c-2.89,3.54-7.14,3.29-11.16,3.29H135.64c-3.87,0-3.87,6,0,6Z" transform="translate(0 -0.01)"/></svg>