<svg id="Layer_1" data-name="Layer 1" xmlns="http://www.w3.org/2000/svg" viewBox="0 0 456.28 456.28"><defs><style>.cls-1{fill:#bd2a8d;}</style></defs><title>insta</title><path class="cls-1" d="M256,69c60.92,0,68.13.24,92.19,1.33,22.24,1,34.32,4.74,42.36,7.86a70.59,70.59,0,0,1,26.23,17.07,70.59,70.59,0,0,1,17.07,26.23c3.12,8,6.84,20.12,7.85,42.36C442.8,187.87,443,195.08,443,256s-.23,68.13-1.33,92.19c-1,22.24-4.73,34.32-7.85,42.36a75.6,75.6,0,0,1-43.3,43.3c-8,3.12-20.12,6.84-42.36,7.85C324.13,442.8,316.92,443,256,443s-68.13-.23-92.19-1.33c-22.24-1-34.32-4.73-42.36-7.85a70.71,70.71,0,0,1-26.23-17.07,70.71,70.71,0,0,1-17.07-26.23c-3.12-8-6.84-20.12-7.85-42.36C69.2,324.13,69,316.92,69,256s.23-68.13,1.33-92.19c1-22.24,4.73-34.32,7.85-42.36A70.71,70.71,0,0,1,95.22,95.22a70.59,70.59,0,0,1,26.23-17.07c8-3.12,20.12-6.84,42.36-7.86C187.87,69.2,195.09,69,256,69m0-41.1c-62,0-69.73.26-94.06,1.37s-40.87,5-55.38,10.61A111.94,111.94,0,0,0,66.15,66.15a111.85,111.85,0,0,0-26.31,40.41c-5.64,14.51-9.5,31.09-10.61,55.38S27.86,194,27.86,256s.26,69.73,1.37,94.06,5,40.87,10.61,55.38a116.61,116.61,0,0,0,66.72,66.72c14.51,5.64,31.1,9.5,55.38,10.61s32.1,1.37,94.06,1.37,69.73-.26,94.06-1.37,40.87-5,55.38-10.61a116.61,116.61,0,0,0,66.72-66.72c5.64-14.51,9.5-31.1,10.61-55.38s1.37-32.1,1.37-94.06-.26-69.73-1.37-94.06-5-40.87-10.61-55.38a116.61,116.61,0,0,0-66.72-66.72c-14.51-5.64-31.09-9.5-55.38-10.61S318,27.86,256,27.86" transform="translate(-27.86 -27.86)"/><path class="cls-1" d="M256,138.85A117.15,117.15,0,1,0,373.15,256,117.15,117.15,0,0,0,256,138.85m0,193.2A76.05,76.05,0,1,1,332.05,256,76.05,76.05,0,0,1,256,332.05" transform="translate(-27.86 -27.86)"/><path class="cls-1" d="M405.16,134.22a27.38,27.38,0,1,1-27.38-27.38,27.37,27.37,0,0,1,27.38,27.38" transform="translate(-27.86 -27.86)"/></svg>