<svg id="Layer_1" data-name="Layer 1" xmlns="http://www.w3.org/2000/svg" viewBox="0 0 3100.83 1724.78"><defs><style>.cls-1,.cls-2{fill:none;stroke-miterlimit:10;stroke-width:10px;}.cls-1{stroke:#f85658;}.cls-2{stroke:#12c6a8;}</style></defs><title>lineas</title><path class="cls-1" d="M539.2,6.78h80c106.1,0,192.11,86,192.11,192.12V583.12c0,106.1,86,192.11,192.11,192.11h272.16c106.1,0,192.11-86,192.11-192.11h0c0-106.1-86-192.11-192.11-192.11h-5.34c-106.1,0-192.11,86-192.11,192.11V898c0,106.1,86,192.11,192.11,192.11h699.08c106.1,0,192.11,86,192.11,192.11v37.36c0,106.1,86,192.11,192.11,192.11h240.14c106.1,0,192.11-86,192.11-192.11V1180.8c0-106.1-86-192.11-192.11-192.11h-16c-106.1,0-192.11,86-192.11,192.11v346.87c0,106.1,86,192.11,192.11,192.11h523"/><path class="cls-2" d="M536.92,191.05V339.33A140.17,140.17,0,0,1,396.76,479.5h0A140.17,140.17,0,0,0,256.59,619.66v728.86a140.16,140.16,0,0,1-140.16,140.17H4.29"/></svg>