<svg id="Layer_1" data-name="Layer 1" xmlns="http://www.w3.org/2000/svg" viewBox="0 0 794.47 102.58"><defs><style>.cls-1{fill:#4d4d4d;}</style></defs><title>logo</title><circle class="cls-1" cx="49.27" cy="6.56" r="6.56"/><path class="cls-1" d="M542,455.71a51.31,51.31,0,0,1-42.6-89.11L504.1,372a6.41,6.41,0,0,1,.07,8.38,38.27,38.27,0,0,0-2.3,46.57c12.24.4,21.68-14.31,30.82-28.54,9.57-14.91,19.46-30.32,34.59-29.35a6.5,6.5,0,0,1,4.48,2.18A51.29,51.29,0,0,1,542,455.71Zm-28.44-17.85A38.2,38.2,0,0,0,564,382.44c-6.66,1.91-13.54,12.64-20.22,23.05C535.48,418.34,526.39,432.51,513.52,437.86Z" transform="translate(-481.94 -353.87)"/><path class="cls-1" d="M610.63,368.75h21.74c15.85,0,26.28,10.53,26.28,24.4s-10.43,24.51-26.28,24.51h-16v22.93h-5.7Zm5.7,5.21v38.38h15.75c12.89,0,20.76-8.36,20.76-19.19,0-11-7.87-19.19-20.76-19.19Z" transform="translate(-481.94 -353.87)"/><path class="cls-1" d="M664.44,416c0-14.07,10.83-25.58,25.29-25.58,7.48,0,15.85,4,19.88,11.22V391.38h5.61v49.21h-5.61V430.35c-4,7.19-12.4,11.22-19.88,11.22A25.23,25.23,0,0,1,664.44,416Zm45.76,0A20.08,20.08,0,1,0,690,436.45,20.2,20.2,0,0,0,710.2,416Z" transform="translate(-481.94 -353.87)"/><path class="cls-1" d="M724.16,432.32l4.43-3.54A19.09,19.09,0,0,0,744,436.65c8.47,0,12.7-4.63,12.7-9.84,0-6.1-6.89-7.38-14.07-9.15-7.88-2-16.14-4.53-16.14-13.68,0-7.28,6.59-13.68,17.22-13.68,7.08,0,13.58,2.66,17.61,7.28L757.13,401a16.78,16.78,0,0,0-13.38-5.91c-7.48,0-11.71,3.84-11.71,8.76,0,5.81,6.59,7.28,13.68,9.05,8,2,16.53,4.43,16.53,13.88,0,6.69-5.51,14.76-18.4,14.76C735.38,441.57,728.3,437.83,724.16,432.32Z" transform="translate(-481.94 -353.87)"/><path class="cls-1" d="M769.57,416.28c0-14.57,10.82-25.88,25.49-25.88,14.36,0,25.19,10.23,25.19,25v2.46H774.88c.79,10.83,8.86,18.7,20.47,18.7,9.15,0,15.35-4.72,18.6-12.3l4.92,2.36c-4.43,9.45-12,15-23.42,15C779.51,441.57,769.57,430.65,769.57,416.28Zm5.51-3.54h39.36c-1.08-10.34-8.46-17.32-19.38-17.32A20.07,20.07,0,0,0,775.08,412.74Z" transform="translate(-481.94 -353.87)"/><path class="cls-1" d="M828.16,416a25.54,25.54,0,1,1,25.49,25.59A25.33,25.33,0,0,1,828.16,416Zm45.36,0c0-11.31-8.75-20.46-19.87-20.46s-19.88,9.15-19.88,20.46,8.76,20.47,19.88,20.47S873.52,427.3,873.52,416Z" transform="translate(-481.94 -353.87)"/><path class="cls-1" d="M917.78,368.75h13.78l25.49,71.84h-9.7a6.43,6.43,0,0,1-6.07-4.32l-2.83-8.18H910.89l-4.33,12.5H892.29ZM915.42,415h18.5l-9.25-26.77Z" transform="translate(-481.94 -353.87)"/><path class="cls-1" d="M960,391.38h13.38v5.51A17,17,0,0,1,987,390.4c11.61,0,18.6,7.48,18.6,20.17v30H991.91V412.34c0-6.59-3-10.43-9-10.43-5.12,0-9.35,3.54-9.35,11.81v26.87H960Z" transform="translate(-481.94 -353.87)"/><path class="cls-1" d="M1010.39,416c0-17.41,12.79-25.58,23.91-25.58,6.4,0,11.42,2.36,14.66,5.8V368.75h13.49v71.84H1049v-5.51a19.19,19.19,0,0,1-14.86,6.49C1023.67,441.57,1010.39,433.3,1010.39,416Zm39-.09c0-7.29-5.32-13.19-12.6-13.19a13.24,13.24,0,0,0,0,26.47C1044,429.17,1049.36,423.17,1049.36,415.89Z" transform="translate(-481.94 -353.87)"/><path class="cls-1" d="M1067.42,416c0-17.41,12.8-25.58,23.92-25.58,6.39,0,11.41,2.36,14.66,5.8v-4.82h13.48v49.21H1106v-5.51a19.2,19.2,0,0,1-14.86,6.49C1080.71,441.57,1067.42,433.3,1067.42,416Zm39-.09c0-7.29-5.31-13.19-12.59-13.19a13.24,13.24,0,0,0,0,26.47C1101.08,429.17,1106.39,423.17,1106.39,415.89Z" transform="translate(-481.94 -353.87)"/><path class="cls-1" d="M1126.51,391.38h13.38v5.51a17,17,0,0,1,13.58-6.49c11.61,0,18.6,7.48,18.6,20.17v30h-13.68V412.34c0-6.59-3.05-10.43-9.05-10.43-5.12,0-9.35,3.54-9.35,11.81v26.87h-13.48Z" transform="translate(-481.94 -353.87)"/><path class="cls-1" d="M1177.13,428.58,1203,403.29h-25.49V391.38h43.59v12.11l-25.88,25.19h26.38v11.91h-44.48Z" transform="translate(-481.94 -353.87)"/><path class="cls-1" d="M1224.36,416c0-17.41,12.79-25.58,23.91-25.58,6.4,0,11.42,2.36,14.67,5.8v-4.82h13.48v49.21h-13.48v-5.51a19.22,19.22,0,0,1-14.86,6.49C1237.65,441.57,1224.36,433.3,1224.36,416Zm39-.09c0-7.29-5.31-13.19-12.6-13.19a13.24,13.24,0,0,0,0,26.47C1258,429.17,1263.33,423.17,1263.33,415.89Z" transform="translate(-481.94 -353.87)"/></svg>