<svg id="Layer_1" data-name="Layer 1" xmlns="http://www.w3.org/2000/svg" viewBox="0 0 322.54 355.86"><defs><style>.cls-1{fill:#fc5555;}</style></defs><title>mas</title><path class="cls-1" d="M177.93,40.6a140.08,140.08,0,0,1,115,61.21c26.08,38.42,30.66,88.91,12.61,131.59C287.93,275,250.07,305.58,206,314.93c-45.37,9.63-93.28-5.27-126.06-37.75-49.17-48.72-53.58-129-11.14-183.45,2.35-3-1.87-7.29-4.24-4.24-31.16,40-39.73,93.78-21.72,141.28C58.32,271.63,92.5,303.46,133.91,317c42.85,13.94,91,6.07,127.66-19.83,36.11-25.5,58.41-66.9,60.77-110.91,2.11-39.19-12.68-77.91-39.43-106.44-27-28.84-65.59-45-105-45.17-3.87,0-3.87,6,0,6Z" transform="translate(0 -1.26)"/><path class="cls-1" d="M299.5,300.75A173.69,173.69,0,0,1,171.08,351C123,349.28,77.6,326.45,46.45,290,15.64,253.91,1.89,205.59,7.22,158.67c5.46-48.13,32.47-92.28,71.85-120.18C111.68,15.39,151.89,4.86,191.62,7.8c40.61,3,79.06,21.24,107.88,49.82,2.74,2.73,7-1.51,4.24-4.24A179.76,179.76,0,0,0,179.3,1.28c-46.43-.55-91.66,18-125.07,50C20.61,83.57,1.33,128.64.06,175.08s16.52,91.79,48,125.68C79.77,335,124.6,355,171.08,357c46.26,2,91.92-15.05,126.27-45.89,2.19-2,4.3-4,6.39-6.09,2.75-2.72-1.5-7-4.24-4.24Z" transform="translate(0 -1.26)"/><path class="cls-1" d="M192.66,245.69H163.21l3,3V193.91c0-3.87-6-3.87-6,0v54.78a3,3,0,0,0,3,3h29.45c3.87,0,3.87-6,0-6Z" transform="translate(0 -1.26)"/><path class="cls-1" d="M189.66,149.44v15a3,3,0,0,0,3,3h54.77l-3-3v29.45l3-3H192.66a3,3,0,0,0-3,3v28c0,3.87,6,3.87,6,0v-28l-3,3h54.77a3,3,0,0,0,3-3V164.46a3,3,0,0,0-3-3H192.66l3,3v-15c0-3.87-6-3.87-6,0Z" transform="translate(0 -1.26)"/><path class="cls-1" d="M122.23,190.91h-13.8l3,3V164.46l-3,3h54.78a3,3,0,0,0,3-3V109.69l-3,3h29.45c3.87,0,3.87-6,0-6h-.86c-3.87,0-3.87,6,0,6h.86c3.87,0,3.87-6,0-6H163.21a3,3,0,0,0-3,3v54.77l3-3H108.43a3,3,0,0,0-3,3v29.45a3,3,0,0,0,3,3h13.8c3.87,0,3.87-6,0-6Z" transform="translate(0 -1.26)"/></svg>