<svg id="Layer_1" data-name="Layer 1" xmlns="http://www.w3.org/2000/svg" viewBox="0 0 355.82 355.87"><defs><style>.cls-1{fill:#12c6a8;}</style></defs><title>p</title><path class="cls-1" d="M185.45,109.92c19.63.21,38.11,8.3,44.32,28.24,5.82,18.69.07,40.69-17.16,51-12,7.15-25.93,6.37-39.31,6.37H152.45a3,3,0,0,0-3,3v51.2l3-3h-31.4l3,3V106.92l-3,3h64.4c3.87,0,3.87-6,0-6h-64.4a3,3,0,0,0-3,3v142.8a3,3,0,0,0,3,3h31.4a3,3,0,0,0,3-3v-51.2l-3,3c23.91,0,51.92,4,71.16-13,15.3-13.57,17.51-38.36,10.35-56.51-7.86-19.91-28.49-27.87-48.51-28.08C181.58,103.88,181.58,109.88,185.45,109.92Z" transform="translate(-0.03 -0.35)"/><path class="cls-1" d="M176.85,177.12c12.06-.15,24.28-2.52,29.2-14.86,4.11-10.32.71-23.47-8.48-29.63-7.36-4.93-17.4-4.31-25.91-4.31H152.45a3,3,0,0,0-3,3v42.8c0,3.87,6,3.87,6,0v-42.8l-3,3c8.73,0,17.46-.09,26.19,0,5.5.07,11,.77,15.9,3.47,5.42,3,6.79,9.24,6.91,14.91.13,6-1.8,11.49-6.91,14.91s-11.91,3.42-17.69,3.49c-3.87,0-3.87,6,0,6Z" transform="translate(-0.03 -0.35)"/><path class="cls-1" d="M316.53,178.26a140,140,0,0,1-61.2,115c-38.42,26.08-88.91,30.66-131.59,12.61-41.63-17.61-72.18-55.47-81.53-99.54C32.58,161,47.48,113.05,80,80.27,128.68,31.1,209,26.69,263.41,69.13c3,2.35,7.29-1.86,4.24-4.24-40-31.16-93.78-39.72-141.29-21.72C85.51,58.65,53.67,92.83,40.19,134.25c-13.94,42.84-6.07,91,19.83,127.66,25.5,36.1,66.9,58.4,110.91,60.77,39.19,2.1,77.91-12.69,106.44-39.44,28.84-27,45-65.59,45.16-105,0-3.87-6-3.86-6,0Z" transform="translate(-0.03 -0.35)"/><path class="cls-1" d="M178,6.35A173.53,173.53,0,0,1,300,57.17c32.31,32.31,50.06,76.94,49.88,122.51s-19.34,89.61-51.74,121.53c-32.58,32.1-77.39,49.49-123,49-44.67-.53-87.71-19.3-119.2-50.8-32-32-49.72-76-49.9-121.1,0-3.86-6-3.86-6,0A179.79,179.79,0,0,0,47.16,298.87C77,331.48,118.7,351.52,162.57,355.51c44.72,4.08,89.61-9.73,125-37.12,34.79-26.93,58.39-67,65.8-110.28A177.76,177.76,0,0,0,178,.35c-3.87,0-3.87,6,0,6Z" transform="translate(-0.03 -0.35)"/></svg>