<svg id="Layer_1" data-name="Layer 1" xmlns="http://www.w3.org/2000/svg" viewBox="0 0 409.6 332.87"><defs><style>.cls-1{fill:#429cd6;}</style></defs><title>twiter</title><path class="cls-1" d="M460.8,129a168.12,168.12,0,0,1-48.26,13.23,84.26,84.26,0,0,0,36.94-46.49,168.22,168.22,0,0,1-53.36,20.39,84.11,84.11,0,0,0-143.19,76.65A238.56,238.56,0,0,1,79.72,104.94a84.13,84.13,0,0,0,26,112.2,83.8,83.8,0,0,1-38.06-10.51c0,.35,0,.7,0,1.06a84.08,84.08,0,0,0,67.41,82.39A84.13,84.13,0,0,1,112.92,293a83.25,83.25,0,0,1-15.81-1.51,84.1,84.1,0,0,0,78.5,58.36A169.57,169.57,0,0,1,51.2,384.68,237.8,237.8,0,0,0,180,422.44c154.58,0,239.1-128,239.1-239.1,0-3.64-.08-7.27-.24-10.87A170.7,170.7,0,0,0,460.8,129Zm0,0" transform="translate(-51.2 -89.56)"/></svg>