<svg id="Layer_1" data-name="Layer 1" xmlns="http://www.w3.org/2000/svg" viewBox="0 0 530.76 375.58"><defs><style>.cls-1{fill:#ee2724;}</style></defs><title>youtube</title><path class="cls-1" d="M411.15,56.87H100.85A110.23,110.23,0,0,0-9.38,167.1V322.22A110.23,110.23,0,0,0,100.85,432.45h310.3A110.23,110.23,0,0,0,521.38,322.22V167.1A110.23,110.23,0,0,0,411.15,56.87ZM336.6,252.21,191.46,321.43a5.83,5.83,0,0,1-8.33-5.26V173.4a5.83,5.83,0,0,1,8.46-5.2l145.13,73.55A5.83,5.83,0,0,1,336.6,252.21Z" transform="translate(9.38 -56.87)"/></svg>